<?xml version="1.0" standalone="no"?><!DOCTYPE svg PUBLIC "-//W3C//DTD SVG 1.1//EN" "http://www.w3.org/Graphics/SVG/1.1/DTD/svg11.dtd"><svg t="1559191509174" class="icon" style="" viewBox="0 0 1024 1024" version="1.1" xmlns="http://www.w3.org/2000/svg" p-id="2492" xmlns:xlink="http://www.w3.org/1999/xlink" width="200" height="200"><defs><style type="text/css"></style></defs><path d="M0 226.852604v701.345101c0 52.420124 42.478376 95.802295 95.802295 95.802295h892.045896c17.172109 0 31.632833-14.460724 31.632833-31.632833s-14.460724-31.632833-31.632833-31.632833H95.802295c-17.172109 0-31.632833-14.460724-31.632833-31.632834V226.852604c0-17.172109-14.460724-31.632833-31.632834-31.632833S0 209.680494 0 226.852604z" fill="#707070" p-id="2493"></path><path d="M159.067961 901.083848h116.589585c182.566637 0 216.007061-44.285966 291.925861-418.457193 68.688438-335.308032 77.72639-351.576346 196.123566-351.576346h150.030008c17.172109 0 31.632833-14.460724 31.632834-31.632833s-14.460724-31.632833-31.632834-31.632833H764.610768c-162.683142 0-184.374228 38.863195-258.485437 403.092674-70.496028 347.05737-84.956752 366.940865-229.563989 366.940865h-117.493381c-17.172109 0-31.632833 14.460724-31.632833 31.632833s14.460724 31.632833 31.632833 31.632833z" fill="#707070" p-id="2494"></path></svg>