<?xml version="1.0" standalone="no"?><!DOCTYPE svg PUBLIC "-//W3C//DTD SVG 1.1//EN" "http://www.w3.org/Graphics/SVG/1.1/DTD/svg11.dtd"><svg t="1560737136294" class="icon" style="" viewBox="0 0 1024 1024" version="1.1" xmlns="http://www.w3.org/2000/svg" p-id="1442" xmlns:xlink="http://www.w3.org/1999/xlink" width="200" height="200"><defs><style type="text/css"></style></defs><path d="M1024.68265 651.776v31.744c0 12.8-6.144 25.6-12.8 37.888-6.144 12.8-12.8 25.6-18.944 31.744-6.144 12.8-12.8 18.944-25.6 18.944-6.144 6.144-18.944 6.144-25.6 6.144s-12.8 0-18.944-6.144c-6.144 0-18.944-6.144-25.6-6.144h-31.744c-12.8 0-25.6 6.144-31.744 6.144-12.8 6.144-18.944 12.8-31.744 18.944-18.944 18.944-25.6 37.888-31.744 63.488 0 25.6 0 44.544 12.8 63.488 6.144 12.8 6.144 31.744-6.144 44.544l-18.944 18.944c-6.144 6.144-18.944 12.8-31.744 18.944s-25.6 6.144-37.888 12.8c-12.8 0-25.6 6.144-31.744 6.144-6.144 0-12.8 0-18.944-6.144-6.144-6.144-12.8-12.8-12.8-18.944-6.144-25.6-18.944-44.544-37.888-56.832-18.944-18.944-44.544-25.6-69.632-25.6-25.6 0-44.544 6.144-69.632 25.6-18.944 18.944-31.744 37.888-44.544 56.832-6.144 6.144-6.144 12.8-18.944 18.944 0 6.144-6.144 6.144-18.944 6.144s-18.944 0-31.744-6.144-25.6-6.144-37.888-12.8-25.6-12.8-31.744-18.944c-12.8-6.144-18.944-12.8-25.6-18.944-6.144-6.144-6.144-12.8-6.144-18.944 0-6.144 0-18.944 6.144-31.744 6.144-18.944 12.8-37.888 6.144-56.832 0-18.944-12.8-44.544-25.6-56.832-12.8-12.8-25.6-18.944-37.888-18.944-12.8-6.144-25.6-6.144-44.544-6.144-12.8 0-31.744 6.144-44.544 6.144h-31.744c-6.144 0-12.8-12.8-25.6-18.944-6.144-12.8-12.8-25.6-18.944-37.888-6.144-12.8-12.8-25.6-12.8-37.888s-6.144-25.6 0-31.744c0-18.944 6.144-25.6 18.944-31.744 31.744-6.144 50.688-25.6 69.632-44.544s25.6-44.544 25.6-63.488c0-25.6-6.144-50.688-25.6-63.488-18.944-25.6-37.888-37.888-56.832-44.544l-18.944-18.944c-6.144-6.144-6.144-18.944-6.144-25.6s0-18.944 6.144-31.744c0-12.8 6.144-25.6 12.8-31.744 6.144-12.8 12.8-18.944 18.944-31.744 0-6.144 6.144-12.8 12.8-18.944s12.8-6.144 18.944-6.144c6.144 0 12.8 0 18.944 6.144 18.944 6.144 44.544 12.8 63.488 6.144 25.6-6.144 44.544-12.8 63.488-31.744 6.144-6.144 12.8-18.944 18.944-31.744s6.144-25.6 6.144-37.888v-31.744-18.944c0-6.144 0-6.144-6.144-12.8v-12.8c6.144-18.944 18.944-25.6 25.6-37.888 12.8-6.144 25.6-12.8 37.888-18.944 12.8-6.144 25.6-6.144 37.888-12.8h31.744c6.144 0 12.8 0 18.944 6.144s6.144 12.8 12.8 18.944c6.144 25.6 18.944 37.888 37.888 56.832 18.944 12.8 37.888 25.6 63.488 25.6s50.688-6.144 69.632-18.944 31.744-31.744 44.544-56.832c0-6.144 6.144-12.8 12.8-18.944C643.24265 5.12 649.89865 5.12 656.04265 5.12c12.8 0 18.944 0 31.744 6.144 12.8 0 25.6 6.144 37.888 12.8 12.8 6.144 25.6 12.8 31.744 18.944 6.144 6.144 12.8 12.8 18.944 25.6 6.144 6.144 6.144 12.8 6.144 18.944s0 12.8-6.144 12.8c-6.144 18.944-12.8 44.544-6.144 63.488 6.144 25.6 12.8 44.544 31.744 63.488 18.944 18.944 37.888 25.6 63.488 31.744 25.6 0 50.688 0 69.632-12.8 6.144-6.144 12.8-6.144 18.944-6.144s12.8 6.144 18.944 12.8c12.8 12.8 18.944 25.6 31.744 44.544 6.144 18.944 12.8 44.544 18.944 63.488 0 12.8 0 18.944-6.144 31.744-6.144 6.144-12.8 12.8-18.944 12.8-25.6 6.144-44.544 18.944-56.832 44.544-18.944 18.944-25.6 44.544-25.6 69.632 0 25.6 6.144 44.544 18.944 63.488s31.744 31.744 50.688 37.888c6.144 0 6.144 6.144 12.8 6.144 13.312 5.12 19.968 11.776 26.112 24.576z m-507.392 94.72c31.744 0 63.488-6.144 95.232-18.944 31.744-12.8 56.832-31.744 76.288-50.688s37.888-44.544 50.688-76.288c6.144-25.6 12.8-56.832 12.8-88.576s-6.144-63.488-18.944-95.232c-12.8-31.744-31.744-50.688-50.688-76.288-18.944-18.944-44.544-37.888-76.288-50.688-25.6-12.8-56.832-18.944-88.576-18.944-31.744 0-63.488 6.144-95.232 18.944-25.6 12.8-50.688 31.744-76.288 50.688-18.944 25.6-37.888 50.688-50.688 76.288-6.144 31.744-12.8 63.488-12.8 95.232s6.144 63.488 18.944 95.232c12.8 31.744 31.744 56.832 50.688 76.288 18.944 18.944 44.544 37.888 76.288 50.688 25.088 6.144 56.832 12.288 88.576 12.288z" p-id="1443"></path></svg>