<?xml version="1.0" standalone="no"?><!DOCTYPE svg PUBLIC "-//W3C//DTD SVG 1.1//EN" "http://www.w3.org/Graphics/SVG/1.1/DTD/svg11.dtd"><svg t="1559191694789" class="icon" style="" viewBox="0 0 1024 1024" version="1.1" xmlns="http://www.w3.org/2000/svg" p-id="6668" xmlns:xlink="http://www.w3.org/1999/xlink" width="200" height="200"><defs><style type="text/css"></style></defs><path d="M846.019 483.232l0.18-224.446c0-33.137-26.683-60.067-59.82-60.067-1.462 0-2.958 0.13-4.477 0.281H396.083c-15.187-76.959-83.035-135-164.449-135C139.052 64 64 139.052 64 231.634s75.052 167.634 167.634 167.634c83.261 0 152.332-60.705 165.398-140.268H786v220H243.019c-33.137 0-59.986 26.513-59.986 59.65l-0.033-0.034v222.018C183 793.771 209.882 821 243.019 821H333v-0.418c16-0.098 29.828-13.488 29.828-29.995 0-16.569-13.427-29.817-29.995-29.817-0.555 0-1.101 0.23-1.649 0.23H243V539H786.199c31.647 0 57.553-24.699 59.82-55.768zM307.743 307.743c-20.329 20.329-47.359 31.525-76.109 31.525-28.75 0-55.779-11.196-76.109-31.525S124 260.384 124 231.634c0-28.75 11.196-55.779 31.525-76.109S202.884 124 231.634 124c28.75 0 55.779 11.196 76.109 31.525s31.525 47.359 31.525 76.109c0 28.75-11.196 55.779-31.525 76.109zM784.663 199h1.715-1.715z" p-id="6669"></path><path d="M545 761h-92c-16.568 0-30 13.432-30 30s13.432 30 30 30h92c16.568 0 30-13.432 30-30s-13.432-30-30-30zM795.366 621.732c-92.582 0-167.634 75.052-167.634 167.634S702.784 957 795.366 957 963 881.948 963 789.366s-75.052-167.634-167.634-167.634z m76.109 243.743C851.145 885.804 824.116 897 795.366 897s-55.779-11.196-76.109-31.525c-20.329-20.329-31.525-47.359-31.525-76.109s11.196-55.779 31.525-76.109c20.329-20.329 47.359-31.525 76.109-31.525s55.779 11.196 76.109 31.525C891.804 733.586 903 760.616 903 789.366s-11.196 55.779-31.525 76.109z" p-id="6670"></path></svg>