<?xml version="1.0" encoding="utf-8"?>
<!-- Generator: Adobe Illustrator 15.0.2, SVG Export Plug-In . SVG Version: 6.00 Build 0)  -->
<!DOCTYPE svg PUBLIC "-//W3C//DTD SVG 1.1//EN" "http://www.w3.org/Graphics/SVG/1.1/DTD/svg11.dtd">
<svg version="1.1" id="Layer_1" xmlns="http://www.w3.org/2000/svg" xmlns:xlink="http://www.w3.org/1999/xlink" x="0px" y="0px"
	 width="100px" height="100px" viewBox="0 0 100 100" enable-background="new 0 0 100 100" xml:space="preserve">
<polygon fill="#808285" points="25.844,76.134 58.144,59.984 80.562,80.974 48.554,97.383 "/>
<polygon fill="#FFFFFF" points="37.877,14.442 62.411,2.31 79.396,18.216 54.862,30.484 "/>
<polygon fill="none" stroke="#808285" stroke-width="0.917" stroke-linecap="round" stroke-linejoin="round" stroke-miterlimit="10" points="
	37.877,14.442 62.411,2.31 79.396,18.216 54.862,30.484 "/>
<line fill="none" stroke="#808285" stroke-width="0.917" stroke-linecap="round" stroke-linejoin="round" stroke-miterlimit="10" x1="46.37" y1="22.462" x2="70.903" y2="10.331"/>
<line fill="none" stroke="#808285" stroke-width="0.917" stroke-linecap="round" stroke-linejoin="round" stroke-miterlimit="10" x1="50.834" y1="8.175" x2="67.633" y2="23.907"/>
<polyline fill="none" stroke="#808285" stroke-width="1.245" stroke-linecap="round" stroke-linejoin="round" stroke-miterlimit="10" points="
	48.555,97.383 97.091,72.986 63.179,41.089 13.86,65.282 48.555,97.383 "/>
<line fill="#FFFFFF" x1="80.562" y1="80.974" x2="47.01" y2="49.414"/>
<line fill="none" stroke="#808285" stroke-width="1.245" stroke-linecap="round" stroke-linejoin="round" stroke-miterlimit="10" x1="80.562" y1="80.974" x2="47.01" y2="49.414"/>
<line fill="#FFFFFF" x1="85.616" y1="62.242" x2="69.613" y2="70.286"/>
<line fill="none" stroke="#808285" stroke-width="1.245" stroke-linecap="round" stroke-linejoin="round" stroke-miterlimit="10" x1="85.616" y1="62.242" x2="69.613" y2="70.286"/>
<polyline fill="#FFFFFF" points="74.34,51.758 58.143,59.984 25.845,76.134 "/>
<polyline fill="none" stroke="#808285" stroke-width="1.245" stroke-linecap="round" stroke-linejoin="round" stroke-miterlimit="10" points="
	74.34,51.758 58.143,59.984 25.845,76.134 "/>
<line fill="#FFFFFF" x1="41.994" y1="68.191" x2="30.458" y2="57.341"/>
<line fill="none" stroke="#808285" stroke-width="1.245" stroke-linecap="round" stroke-linejoin="round" stroke-miterlimit="10" x1="41.994" y1="68.191" x2="30.458" y2="57.341"/>
<line fill="none" stroke="#FFFFFF" stroke-width="1.245" stroke-linecap="round" stroke-linejoin="round" stroke-miterlimit="10" x1="64.262" y1="89.137" x2="41.994" y2="68.191"/>
<line fill="none" stroke="#FFFFFF" stroke-width="1.245" stroke-linecap="round" stroke-linejoin="round" stroke-miterlimit="10" x1="69.613" y1="70.285" x2="37.284" y2="86.534"/>
<polyline fill="none" stroke="#808285" stroke-width="0.917" stroke-linecap="round" stroke-linejoin="round" stroke-miterlimit="10" stroke-dasharray="1.421,2.842" points="
	36.802,68.594 23.748,36.618 25.844,76.134 "/>
<line fill="none" stroke="#FFFFFF" stroke-width="0.917" stroke-linecap="round" stroke-linejoin="round" stroke-miterlimit="10" stroke-dasharray="1.376,2.753" x1="37.5" y1="70.306" x2="48.555" y2="97.382"/>
<polyline fill="none" stroke="#808285" stroke-width="0.917" stroke-linecap="round" stroke-linejoin="round" stroke-miterlimit="10" stroke-dasharray="1.421,2.842" points="
	58.144,59.984 23.749,36.618 55.476,61.388 "/>
<polygon fill="#808285" points="37.877,14.442 50.647,8 59.276,16.081 46.37,22.463 "/>
<line fill="none" stroke="#FFFFFF" stroke-width="0.917" stroke-linecap="round" stroke-linejoin="round" stroke-miterlimit="10" stroke-dasharray="1.376,2.753" x1="80.562" y1="80.974" x2="55.475" y2="61.389"/>
<line fill="none" stroke="#808285" stroke-width="0.917" stroke-linecap="round" stroke-linejoin="round" stroke-miterlimit="10" stroke-dasharray="1.421,2.842" x1="30.509" y1="34.996" x2="49.1" y2="15.231"/>
<polygon fill="#808285" points="16.254,37.897 27.654,32.26 35.546,39.651 24.147,45.351 "/>
<line fill="none" stroke="#FFFFFF" stroke-width="1.5" stroke-linecap="round" stroke-linejoin="round" stroke-miterlimit="10" x1="20.2" y1="41.624" x2="31.6" y2="35.987"/>
<line fill="none" stroke="#FFFFFF" stroke-width="1.5" stroke-linecap="round" stroke-linejoin="round" stroke-miterlimit="10" x1="22.275" y1="34.984" x2="30.08" y2="42.295"/>
<line fill="none" stroke="#FFFFFF" stroke-width="0.917" stroke-linecap="round" stroke-linejoin="round" stroke-miterlimit="10" stroke-dasharray="1.376,2.753" x1="26.178" y1="38.639" x2="30.539" y2="34.96"/>
</svg>
