<?xml version="1.0" encoding="utf-8"?>
<!-- Generator: Adobe Illustrator 15.0.2, SVG Export Plug-In . SVG Version: 6.00 Build 0)  -->
<!DOCTYPE svg PUBLIC "-//W3C//DTD SVG 1.1//EN" "http://www.w3.org/Graphics/SVG/1.1/DTD/svg11.dtd">
<svg version="1.1" id="Layer_1" xmlns="http://www.w3.org/2000/svg" xmlns:xlink="http://www.w3.org/1999/xlink" x="0px" y="0px"
	 width="100px" height="100px" viewBox="0 0 100 100" enable-background="new 0 0 100 100" xml:space="preserve">
<g>
	<polygon fill="#808285" points="8.779,68.986 27.014,59.869 39.669,71.72 21.6,80.982 	"/>
	<polygon fill="#FFFFFF" points="15.572,34.159 29.423,27.31 39.011,36.29 25.161,43.215 	"/>
	
		<polygon fill="none" stroke="#808285" stroke-width="0.917" stroke-linecap="round" stroke-linejoin="round" stroke-miterlimit="10" points="
		15.572,34.159 29.423,27.31 39.011,36.29 25.161,43.215 	"/>
	
		<line fill="none" stroke="#808285" stroke-width="0.917" stroke-linecap="round" stroke-linejoin="round" stroke-miterlimit="10" x1="20.367" y1="38.687" x2="34.216" y2="31.838"/>
	
		<line fill="none" stroke="#808285" stroke-width="0.917" stroke-linecap="round" stroke-linejoin="round" stroke-miterlimit="10" x1="22.887" y1="30.621" x2="32.371" y2="39.502"/>
	
		<polyline fill="none" stroke="#808285" stroke-width="1.245" stroke-linecap="round" stroke-linejoin="round" stroke-miterlimit="10" points="
		21.601,80.982 49,67.21 29.857,49.202 2.014,62.86 21.601,80.982 	"/>
	<line fill="none" x1="39.669" y1="71.72" x2="20.728" y2="53.902"/>
	
		<line fill="none" stroke="#808285" stroke-width="1.245" stroke-linecap="round" stroke-linejoin="round" stroke-miterlimit="10" x1="39.669" y1="71.72" x2="20.728" y2="53.902"/>
	<line fill="none" x1="42.523" y1="61.145" x2="33.489" y2="65.686"/>
	
		<line fill="none" stroke="#808285" stroke-width="1.245" stroke-linecap="round" stroke-linejoin="round" stroke-miterlimit="10" x1="42.523" y1="61.145" x2="33.489" y2="65.686"/>
	<polyline fill="#FFFFFF" points="36.157,55.225 27.013,59.869 8.779,68.986 	"/>
	
		<polyline fill="none" stroke="#808285" stroke-width="1.245" stroke-linecap="round" stroke-linejoin="round" stroke-miterlimit="10" points="
		36.157,55.225 27.013,59.869 8.779,68.986 	"/>
	<line fill="none" x1="17.896" y1="64.502" x2="11.384" y2="58.377"/>
	
		<line fill="none" stroke="#808285" stroke-width="1.245" stroke-linecap="round" stroke-linejoin="round" stroke-miterlimit="10" x1="17.896" y1="64.502" x2="11.384" y2="58.377"/>
	
		<line fill="none" stroke="#FFFFFF" stroke-width="1.245" stroke-linecap="round" stroke-linejoin="round" stroke-miterlimit="10" x1="30.467" y1="76.327" x2="17.896" y2="64.502"/>
	
		<line fill="none" stroke="#FFFFFF" stroke-width="1.245" stroke-linecap="round" stroke-linejoin="round" stroke-miterlimit="10" x1="33.489" y1="65.685" x2="15.237" y2="74.857"/>
	
		<polyline fill="none" stroke="#808285" stroke-width="0.917" stroke-linecap="round" stroke-linejoin="round" stroke-miterlimit="10" stroke-dasharray="1.421,2.842" points="
		14.965,64.73 7.596,46.679 8.779,68.986 	"/>
	
		<line fill="none" stroke="#FFFFFF" stroke-width="0.917" stroke-linecap="round" stroke-linejoin="round" stroke-miterlimit="10" stroke-dasharray="1.376,2.753" x1="15.359" y1="65.697" x2="21.601" y2="80.981"/>
	
		<polyline fill="none" stroke="#808285" stroke-width="0.917" stroke-linecap="round" stroke-linejoin="round" stroke-miterlimit="10" stroke-dasharray="1.421,2.842" points="
		27.014,59.869 7.596,46.679 25.508,60.662 	"/>
	<polygon fill="#808285" points="15.572,34.159 22.781,30.522 27.652,35.084 20.367,38.688 	"/>
	
		<line fill="none" stroke="#FFFFFF" stroke-width="0.917" stroke-linecap="round" stroke-linejoin="round" stroke-miterlimit="10" stroke-dasharray="1.376,2.753" x1="39.669" y1="71.72" x2="25.507" y2="60.662"/>
	
		<line fill="none" stroke="#808285" stroke-width="0.917" stroke-linecap="round" stroke-linejoin="round" stroke-miterlimit="10" stroke-dasharray="1.421,2.842" x1="11.413" y1="45.762" x2="21.908" y2="34.604"/>
	<polygon fill="#808285" points="3.365,47.4 9.801,44.218 14.256,48.39 7.821,51.608 	"/>
	
		<line fill="none" stroke="#FFFFFF" stroke-width="1.5" stroke-linecap="round" stroke-linejoin="round" stroke-miterlimit="10" x1="5.593" y1="49.504" x2="12.029" y2="46.322"/>
	
		<line fill="none" stroke="#FFFFFF" stroke-width="1.5" stroke-linecap="round" stroke-linejoin="round" stroke-miterlimit="10" x1="6.764" y1="45.756" x2="11.171" y2="49.883"/>
	
		<line fill="none" stroke="#FFFFFF" stroke-width="0.917" stroke-linecap="round" stroke-linejoin="round" stroke-miterlimit="10" stroke-dasharray="1.376,2.753" x1="8.968" y1="47.819" x2="11.43" y2="45.743"/>
</g>
<g>
	<polygon fill="#808285" points="57.779,66.986 76.014,57.869 88.67,69.72 70.6,78.982 	"/>
	<polygon fill="#FFFFFF" points="64.572,32.159 78.423,25.31 88.012,34.29 74.16,41.215 	"/>
	
		<polygon fill="none" stroke="#808285" stroke-width="0.917" stroke-linecap="round" stroke-linejoin="round" stroke-miterlimit="10" points="
		64.572,32.159 78.423,25.31 88.012,34.29 74.16,41.215 	"/>
	
		<line fill="none" stroke="#808285" stroke-width="0.917" stroke-linecap="round" stroke-linejoin="round" stroke-miterlimit="10" x1="69.367" y1="36.687" x2="83.217" y2="29.838"/>
	
		<line fill="none" stroke="#808285" stroke-width="0.917" stroke-linecap="round" stroke-linejoin="round" stroke-miterlimit="10" x1="71.887" y1="28.621" x2="81.371" y2="37.502"/>
	
		<polyline fill="none" stroke="#808285" stroke-width="1.245" stroke-linecap="round" stroke-linejoin="round" stroke-miterlimit="10" points="
		70.602,78.982 98,65.21 78.857,47.202 51.014,60.86 70.602,78.982 	"/>
	<line fill="none" x1="88.67" y1="69.72" x2="69.729" y2="51.902"/>
	
		<line fill="none" stroke="#808285" stroke-width="1.245" stroke-linecap="round" stroke-linejoin="round" stroke-miterlimit="10" x1="88.67" y1="69.72" x2="69.729" y2="51.902"/>
	<line fill="none" x1="91.523" y1="59.145" x2="82.488" y2="63.686"/>
	
		<line fill="none" stroke="#808285" stroke-width="1.245" stroke-linecap="round" stroke-linejoin="round" stroke-miterlimit="10" x1="91.523" y1="59.145" x2="82.488" y2="63.686"/>
	<polyline fill="#FFFFFF" points="85.156,53.225 76.014,57.869 57.779,66.986 	"/>
	
		<polyline fill="none" stroke="#808285" stroke-width="1.245" stroke-linecap="round" stroke-linejoin="round" stroke-miterlimit="10" points="
		85.156,53.225 76.014,57.869 57.779,66.986 	"/>
	<line fill="none" x1="66.896" y1="62.502" x2="60.385" y2="56.377"/>
	
		<line fill="none" stroke="#808285" stroke-width="1.245" stroke-linecap="round" stroke-linejoin="round" stroke-miterlimit="10" x1="66.896" y1="62.502" x2="60.385" y2="56.377"/>
	
		<line fill="none" stroke="#FFFFFF" stroke-width="1.245" stroke-linecap="round" stroke-linejoin="round" stroke-miterlimit="10" x1="79.467" y1="74.327" x2="66.896" y2="62.502"/>
	
		<line fill="none" stroke="#FFFFFF" stroke-width="1.245" stroke-linecap="round" stroke-linejoin="round" stroke-miterlimit="10" x1="82.488" y1="63.685" x2="64.237" y2="72.857"/>
	
		<polyline fill="none" stroke="#808285" stroke-width="0.917" stroke-linecap="round" stroke-linejoin="round" stroke-miterlimit="10" stroke-dasharray="1.421,2.842" points="
		63.965,62.73 56.596,44.679 57.779,66.986 	"/>
	
		<line fill="none" stroke="#FFFFFF" stroke-width="0.917" stroke-linecap="round" stroke-linejoin="round" stroke-miterlimit="10" stroke-dasharray="1.376,2.753" x1="64.359" y1="63.697" x2="70.602" y2="78.981"/>
	
		<polyline fill="none" stroke="#808285" stroke-width="0.917" stroke-linecap="round" stroke-linejoin="round" stroke-miterlimit="10" stroke-dasharray="1.421,2.842" points="
		76.014,57.869 56.596,44.679 74.508,58.662 	"/>
	<polygon fill="#808285" points="64.572,32.159 71.781,28.522 76.652,33.084 69.367,36.688 	"/>
	
		<line fill="none" stroke="#FFFFFF" stroke-width="0.917" stroke-linecap="round" stroke-linejoin="round" stroke-miterlimit="10" stroke-dasharray="1.376,2.753" x1="88.67" y1="69.72" x2="74.507" y2="58.662"/>
	
		<line fill="none" stroke="#808285" stroke-width="0.917" stroke-linecap="round" stroke-linejoin="round" stroke-miterlimit="10" stroke-dasharray="1.421,2.842" x1="60.412" y1="43.762" x2="70.908" y2="32.604"/>
	<polygon fill="#808285" points="52.365,45.4 58.801,42.218 63.256,46.39 56.82,49.608 	"/>
	
		<line fill="none" stroke="#FFFFFF" stroke-width="1.5" stroke-linecap="round" stroke-linejoin="round" stroke-miterlimit="10" x1="54.594" y1="47.504" x2="61.029" y2="44.322"/>
	
		<line fill="none" stroke="#FFFFFF" stroke-width="1.5" stroke-linecap="round" stroke-linejoin="round" stroke-miterlimit="10" x1="55.764" y1="43.756" x2="60.171" y2="47.883"/>
	
		<line fill="none" stroke="#FFFFFF" stroke-width="0.917" stroke-linecap="round" stroke-linejoin="round" stroke-miterlimit="10" stroke-dasharray="1.376,2.753" x1="57.968" y1="45.819" x2="60.43" y2="43.743"/>
</g>
<g>
	<polygon fill="#808285" points="57.265,35.931 50.896,29.562 50.881,42.315 	"/>
	<rect x="43.033" y="33.5" fill="#808285" width="8.48" height="4.878"/>
</g>
</svg>
