<?xml version="1.0" encoding="utf-8"?>
<!-- Generator: Adobe Illustrator 22.0.1, SVG Export Plug-In . SVG Version: 6.00 Build 0)  -->
<svg version="1.1" id="图层_1" xmlns="http://www.w3.org/2000/svg" xmlns:xlink="http://www.w3.org/1999/xlink" x="0px" y="0px"
	 viewBox="0 0 1024 1024" style="enable-background:new 0 0 1024 1024;" xml:space="preserve">
<style type="text/css">
	.st0{fill:#B3B3B3;stroke:#000000;stroke-miterlimit:10;}
	.st1{fill:none;stroke:#0087D0;stroke-width:20;stroke-miterlimit:10;}
	.st2{fill:#0087D0;}
	.st3{fill:#00FFFF;stroke:#1B8FCF;stroke-width:40;stroke-miterlimit:10;}
	.st4{fill:none;stroke:#1B8FCF;stroke-width:40;stroke-miterlimit:10;}
	.st5{fill:#E6E6E6;stroke:#000000;stroke-miterlimit:10;}
</style>
<path class="st0" d="M940.3,256H83.4c-11.1,0-20.1-9-20.1-20.1V83.4c0-11.1,9-20.1,20.1-20.1h856.9c11.1,0,20.1,9,20.1,20.1v152.5
	C960.4,247,951.4,256,940.3,256z"/>
<path class="st0" d="M941.4,958.2H84.6c-11.1,0-20.1-9-20.1-20.1V785.7c0-11.1,9-20.1,20.1-20.1h856.9c11.1,0,20.1,9,20.1,20.1
	v152.5C961.5,949.2,952.5,958.2,941.4,958.2z"/>
<line class="st1" x1="256" y1="165.5" x2="256.9" y2="863.3"/>
<line class="st1" x1="511.3" y1="165.5" x2="513" y2="861.9"/>
<line class="st1" x1="769.1" y1="165.5" x2="769.1" y2="864.3"/>
<line class="st1" x1="256" y1="165.5" x2="769.1" y2="864.3"/>
<line class="st1" x1="768.1" y1="165.5" x2="256.9" y2="863.3"/>
<line class="st1" x1="511.3" y1="165.5" x2="256.9" y2="863.3"/>
<line class="st1" x1="256" y1="165.5" x2="513" y2="861.9"/>
<line class="st1" x1="769.1" y1="165.5" x2="513" y2="861.9"/>
<line class="st1" x1="511.3" y1="165.5" x2="769.1" y2="864.3"/>
<path class="st2" d="M261.4,158.3c-0.3,0-0.7,0-1,0.1c-0.9-0.6-1.9-0.9-3.2-0.9c-0.4,0-0.9,0-1.3,0.1c-0.4-0.1-0.8-0.1-1.3-0.1
	c-0.4,0-0.9,0-1.3,0.1c-0.4-0.1-0.8-0.1-1.3-0.1c-7.7,0-7.7,12,0,12c0.4,0,0.9,0,1.3-0.1c0.4,0.1,0.8,0.1,1.3,0.1
	c0.4,0,0.9,0,1.3-0.1c0.4,0.1,0.8,0.1,1.3,0.1c0.3,0,0.7,0,1-0.1c0.9,0.6,1.9,0.9,3.2,0.9C269.1,170.3,269.1,158.3,261.4,158.3z"/>
<path class="st2" d="M777.1,164.9c0.8-3.4-1.1-7.5-5.6-7.5c-0.3,0-0.7,0-1,0.1c-0.9-0.6-1.9-0.9-3.2-0.9c-0.4,0-0.9,0-1.3,0.1
	c-0.4-0.1-0.8-0.1-1.3-0.1c-7.7,0-7.7,12,0,12c0.3,0,0.6,0,1-0.1c0.3,0.2,0.5,0.3,0.8,0.4c0.2,2.8,2.1,5.5,5.8,5.5
	C777.8,174.5,779.4,168.5,777.1,164.9z"/>
<path class="st2" d="M514.3,157.4c-1.8,0-3.2,0.7-4.2,1.7c-1.4,0.2-2.6,0.8-3.4,1.7c-0.3,0-0.5-0.1-0.8-0.1c-7.7,0-7.7,12,0,12
	c1,0,1.8-0.2,2.5-0.5c0.7,0.3,1.6,0.5,2.5,0.5c2.8,0,4.6-1.6,5.4-3.7C522,167.2,521.3,157.4,514.3,157.4z"/>
<path class="st2" d="M259.7,860c-0.3,0-0.6,0-0.8,0.1c-1-1-2.4-1.7-4.2-1.7c-4.2,0-6.1,3.6-5.7,6.8c-0.4,3.3,1.5,6.8,5.7,6.8
	c0.6,0,1.2-0.1,1.7-0.2c0.5,0.1,1.1,0.2,1.7,0.2c0.3,0,0.6,0,0.8-0.1c0.3,0,0.5,0.1,0.8,0.1C267.4,872,267.5,860,259.7,860z"/>
<path class="st2" d="M515.2,858.3c-0.3,0-0.7,0-1,0.1c-0.9-0.6-1.9-0.9-3.2-0.9c-4.4,0-6.3,3.9-5.7,7.3c-0.6,3.4,1.3,7.3,5.7,7.3
	c1.8,0,3.2-0.7,4.2-1.7c0,0,0,0,0,0C522.9,870.3,522.9,858.3,515.2,858.3z"/>
<path class="st2" d="M775.6,861.8c-0.9-1.6-2.5-2.7-4.9-2.7c-2.9,0-4.7,1.7-5.4,3.8c-1.1,0.9-1.7,2.2-1.9,3.6
	c-3.3,3.2-2,10.5,4,10.5c1.9,0,3.4-0.8,4.3-1.9c0.5,0.1,1,0.2,1.6,0.2c2.9,0,4.8-1.7,5.5-3.9C780.9,868.3,779.9,862.9,775.6,861.8z"
	/>
<line class="st3" x1="257.9" y1="156.4" x2="255.8" y2="871.1"/>
<line class="st4" x1="510.1" y1="156.4" x2="512.6" y2="872.1"/>
<line class="st4" x1="766" y1="156.7" x2="771.6" y2="875.1"/>
<line class="st4" x1="257.9" y1="156.4" x2="512.6" y2="872.1"/>
<line class="st4" x1="769.1" y1="156.6" x2="512.6" y2="872.1"/>
<line class="st4" x1="514.3" y1="157.4" x2="255.8" y2="871.1"/>
<line class="st4" x1="770.6" y1="881.1" x2="512.6" y2="159.6"/>
<line class="st4" x1="258" y1="872" x2="769.1" y2="156.6"/>
<line class="st4" x1="257.9" y1="156.4" x2="770.6" y2="881.1"/>
<circle class="st5" cx="257.9" cy="156.4" r="55.5"/>
<circle class="st5" cx="510.1" cy="156.4" r="55.5"/>
<circle class="st5" cx="767.9" cy="156.6" r="55.5"/>
<circle class="st5" cx="255.8" cy="871.1" r="55.5"/>
<circle class="st5" cx="512.6" cy="872.1" r="55.5"/>
<circle class="st5" cx="767.9" cy="871.8" r="55.5"/>
</svg>
