<?xml version="1.0" encoding="utf-8"?>
<!-- Generator: Adobe Illustrator 15.0.2, SVG Export Plug-In . SVG Version: 6.00 Build 0)  -->
<!DOCTYPE svg PUBLIC "-//W3C//DTD SVG 1.1//EN" "http://www.w3.org/Graphics/SVG/1.1/DTD/svg11.dtd">
<svg version="1.1" id="Layer_1" xmlns="http://www.w3.org/2000/svg" xmlns:xlink="http://www.w3.org/1999/xlink" x="0px" y="0px"
	 width="100px" height="100px" viewBox="0 0 100 100" enable-background="new 0 0 100 100" xml:space="preserve">
<g>
	<defs>
		<rect id="SVGID_1_" width="100" height="100"/>
	</defs>
	<clipPath id="SVGID_2_">
		<use xlink:href="#SVGID_1_"  overflow="visible"/>
	</clipPath>
	
		<path clip-path="url(#SVGID_2_)" fill="none" stroke="#808285" stroke-linecap="round" stroke-linejoin="round" stroke-miterlimit="10" d="
		M12.802,30.819H4.901c-1.207,0-2.194-0.988-2.194-2.195V4.411c0-1.207,0.987-2.195,2.194-2.195h7.901
		c1.207,0,2.195,0.988,2.195,2.195v24.213C14.997,29.831,14.009,30.819,12.802,30.819z"/>
	
		<line clip-path="url(#SVGID_2_)" fill="none" stroke="#808285" stroke-linecap="round" stroke-linejoin="round" stroke-miterlimit="10" x1="2.707" y1="21.143" x2="14.997" y2="21.143"/>
	
		<path clip-path="url(#SVGID_2_)" fill="none" stroke="#808285" stroke-linecap="round" stroke-linejoin="round" stroke-miterlimit="10" d="
		M12.802,64.913H4.901c-1.207,0-2.194-0.988-2.194-2.195V38.504c0-1.207,0.987-2.195,2.194-2.195h7.901
		c1.207,0,2.195,0.988,2.195,2.195v24.213C14.997,63.925,14.009,64.913,12.802,64.913z"/>
	
		<line clip-path="url(#SVGID_2_)" fill="none" stroke="#808285" stroke-linecap="round" stroke-linejoin="round" stroke-miterlimit="10" x1="2.707" y1="45.986" x2="14.997" y2="45.986"/>
	
		<line clip-path="url(#SVGID_2_)" fill="none" stroke="#808285" stroke-linecap="round" stroke-linejoin="round" stroke-miterlimit="10" x1="2.707" y1="55.236" x2="14.997" y2="55.236"/>
	
		<path clip-path="url(#SVGID_2_)" fill="none" stroke="#808285" stroke-linecap="round" stroke-linejoin="round" stroke-miterlimit="10" d="
		M12.802,97.783H4.901c-1.207,0-2.194-0.987-2.194-2.194V71.376c0-1.207,0.987-2.195,2.194-2.195h7.901
		c1.207,0,2.195,0.988,2.195,2.195v24.213C14.997,96.796,14.009,97.783,12.802,97.783z"/>
	
		<line clip-path="url(#SVGID_2_)" fill="none" stroke="#808285" stroke-linecap="round" stroke-linejoin="round" stroke-miterlimit="10" x1="2.707" y1="78.857" x2="14.997" y2="78.857"/>
	
		<line clip-path="url(#SVGID_2_)" fill="none" stroke="#808285" stroke-linecap="round" stroke-linejoin="round" stroke-miterlimit="10" x1="2.707" y1="88.107" x2="14.997" y2="88.107"/>
	
		<path clip-path="url(#SVGID_2_)" fill="none" stroke="#808285" stroke-linecap="round" stroke-linejoin="round" stroke-miterlimit="10" d="
		M46.7,64.913h-7.901c-1.207,0-2.194-0.988-2.194-2.195V38.504c0-1.207,0.987-2.195,2.194-2.195H46.7
		c1.207,0,2.195,0.988,2.195,2.195v24.213C48.895,63.925,47.907,64.913,46.7,64.913z"/>
	
		<line clip-path="url(#SVGID_2_)" fill="none" stroke="#808285" stroke-linecap="round" stroke-linejoin="round" stroke-miterlimit="10" x1="36.605" y1="45.986" x2="48.895" y2="45.986"/>
	
		<line clip-path="url(#SVGID_2_)" fill="none" stroke="#808285" stroke-linecap="round" stroke-linejoin="round" stroke-miterlimit="10" x1="36.605" y1="55.236" x2="48.895" y2="55.236"/>
	
		<path clip-path="url(#SVGID_2_)" fill="none" stroke="#808285" stroke-linecap="round" stroke-linejoin="round" stroke-miterlimit="10" d="
		M79.659,64.913h-7.9c-1.207,0-2.194-0.988-2.194-2.195V38.504c0-1.207,0.987-2.195,2.194-2.195h7.9
		c1.207,0,2.195,0.988,2.195,2.195v24.213C81.854,63.925,80.866,64.913,79.659,64.913z"/>
	
		<line clip-path="url(#SVGID_2_)" fill="none" stroke="#808285" stroke-linecap="round" stroke-linejoin="round" stroke-miterlimit="10" x1="69.564" y1="45.986" x2="81.854" y2="45.986"/>
	
		<line clip-path="url(#SVGID_2_)" fill="none" stroke="#808285" stroke-linecap="round" stroke-linejoin="round" stroke-miterlimit="10" x1="69.564" y1="55.236" x2="81.854" y2="55.236"/>
	<path clip-path="url(#SVGID_2_)" fill="#808285" d="M12.802,2.216H4.901c-1.207,0-2.194,0.988-2.194,2.195v7.481h12.29V4.412
		C14.997,3.205,14.009,2.216,12.802,2.216"/>
	
		<path clip-path="url(#SVGID_2_)" fill="none" stroke="#808285" stroke-linecap="round" stroke-linejoin="round" stroke-miterlimit="10" d="
		M12.802,2.216H4.901c-1.207,0-2.194,0.988-2.194,2.195v7.481h12.29V4.412C14.997,3.205,14.009,2.216,12.802,2.216z"/>
	<path clip-path="url(#SVGID_2_)" fill="#808285" d="M4.901,97.783h7.901c1.207,0,2.194-0.987,2.194-2.194v-7.481H2.707v7.481
		C2.707,96.796,3.694,97.783,4.901,97.783"/>
	
		<path clip-path="url(#SVGID_2_)" fill="none" stroke="#808285" stroke-linecap="round" stroke-linejoin="round" stroke-miterlimit="10" d="
		M4.901,97.783h7.901c1.207,0,2.194-0.987,2.194-2.194v-7.481H2.707v7.481C2.707,96.796,3.694,97.783,4.901,97.783z"/>
	<rect x="2.707" y="45.986" clip-path="url(#SVGID_2_)" fill="#808285" width="12.29" height="9.25"/>
	
		<rect x="2.707" y="45.986" clip-path="url(#SVGID_2_)" fill="none" stroke="#808285" stroke-linecap="round" stroke-linejoin="round" stroke-miterlimit="10" width="12.29" height="9.25"/>
	<polygon clip-path="url(#SVGID_2_)" fill="#808285" points="33.417,50.668 27.047,44.299 27.033,57.052 	"/>
	
		<polyline clip-path="url(#SVGID_2_)" fill="none" stroke="#808285" stroke-linecap="round" stroke-linejoin="round" stroke-miterlimit="10" points="
		33.417,50.668 27.047,44.299 27.033,57.052 33.417,50.668 	"/>
	<rect x="19.185" y="48.237" clip-path="url(#SVGID_2_)" fill="#808285" width="8.482" height="4.878"/>
	
		<rect x="19.185" y="48.237" clip-path="url(#SVGID_2_)" fill="none" stroke="#808285" stroke-linecap="round" stroke-linejoin="round" stroke-miterlimit="10" width="8.482" height="4.878"/>
	<polygon clip-path="url(#SVGID_2_)" fill="#808285" points="66.846,50.668 60.477,44.299 60.461,57.052 	"/>
	
		<polyline clip-path="url(#SVGID_2_)" fill="none" stroke="#808285" stroke-linecap="round" stroke-linejoin="round" stroke-miterlimit="10" points="
		66.846,50.668 60.477,44.299 60.461,57.052 66.846,50.668 	"/>
	<rect x="52.614" y="48.237" clip-path="url(#SVGID_2_)" fill="#808285" width="8.481" height="4.878"/>
	
		<rect x="52.614" y="48.237" clip-path="url(#SVGID_2_)" fill="none" stroke="#808285" stroke-linecap="round" stroke-linejoin="round" stroke-miterlimit="10" width="8.481" height="4.878"/>
	<polygon clip-path="url(#SVGID_2_)" fill="#808285" points="90.925,57.792 97.293,51.423 84.54,51.408 	"/>
	
		<polyline clip-path="url(#SVGID_2_)" fill="none" stroke="#808285" stroke-linecap="round" stroke-linejoin="round" stroke-miterlimit="10" points="
		90.925,57.792 97.293,51.423 84.54,51.408 90.925,57.792 	"/>
	<rect x="88.478" y="43.56" clip-path="url(#SVGID_2_)" fill="#808285" width="4.879" height="8.482"/>
	
		<rect x="88.478" y="43.56" clip-path="url(#SVGID_2_)" fill="none" stroke="#808285" stroke-linecap="round" stroke-linejoin="round" stroke-miterlimit="10" width="4.879" height="8.482"/>
	<polygon clip-path="url(#SVGID_2_)" fill="#808285" points="31.327,69.502 22.32,69.502 31.327,78.531 	"/>
	
		<polyline clip-path="url(#SVGID_2_)" fill="none" stroke="#808285" stroke-linecap="round" stroke-linejoin="round" stroke-miterlimit="10" points="
		31.327,69.502 22.32,69.502 31.327,78.531 31.327,69.502 	"/>
	
		<rect x="20.027" y="74.133" transform="matrix(-0.7072 0.707 -0.707 -0.7072 95.5691 113.5631)" clip-path="url(#SVGID_2_)" fill="#808285" width="8.48" height="4.878"/>
	
		<rect x="20.027" y="74.133" transform="matrix(-0.7072 0.707 -0.707 -0.7072 95.5691 113.5631)" clip-path="url(#SVGID_2_)" fill="none" stroke="#808285" stroke-linecap="round" stroke-linejoin="round" stroke-miterlimit="10" width="8.48" height="4.878"/>
	<polygon clip-path="url(#SVGID_2_)" fill="#808285" points="31.338,30.395 31.338,21.388 22.309,30.395 	"/>
	
		<polyline clip-path="url(#SVGID_2_)" fill="none" stroke="#808285" stroke-linecap="round" stroke-linejoin="round" stroke-miterlimit="10" points="
		31.338,30.395 31.338,21.388 22.309,30.395 31.338,30.395 	"/>
	
		<rect x="20.027" y="20.897" transform="matrix(-0.7071 -0.7071 0.7071 -0.7071 24.9271 56.996)" clip-path="url(#SVGID_2_)" fill="#808285" width="8.481" height="4.878"/>
	
		<rect x="20.027" y="20.897" transform="matrix(-0.7071 -0.7071 0.7071 -0.7071 24.9271 56.996)" clip-path="url(#SVGID_2_)" fill="none" stroke="#808285" stroke-linecap="round" stroke-linejoin="round" stroke-miterlimit="10" width="8.481" height="4.878"/>
</g>
</svg>
