<?xml version="1.0" standalone="no"?><!DOCTYPE svg PUBLIC "-//W3C//DTD SVG 1.1//EN" "http://www.w3.org/Graphics/SVG/1.1/DTD/svg11.dtd"><svg t="1560737215110" class="icon" style="" viewBox="0 0 1027 1024" version="1.1" xmlns="http://www.w3.org/2000/svg" p-id="5091" xmlns:xlink="http://www.w3.org/1999/xlink" width="200.5859375" height="200"><defs><style type="text/css"></style></defs><path d="M1017.173333 860.16L395.946667 269.653333l191.146666-187.733333c3.413333-3.413333 6.826667-13.653333 3.413334-17.066667-3.413333-6.826667-10.24-10.24-17.066667-10.24h-75.093333c-95.573333 0-184.32 37.546667-249.173334 102.4L3.413333 399.36c0-3.413333-3.413333 3.413333-3.413333 6.826667s3.413333 10.24 3.413333 13.653333l109.226667 105.813333c3.413333 3.413333 6.826667 3.413333 13.653333 3.413334s10.24 0 13.653334-3.413334l170.666666-167.253333 600.746667 610.986667c3.413333 3.413333 6.826667 3.413333 13.653333 3.413333 58.026667 0 102.4-44.373333 102.4-102.4l-10.24-10.24z" fill="" p-id="5092"></path></svg>