<?xml version="1.0" standalone="no"?><!DOCTYPE svg PUBLIC "-//W3C//DTD SVG 1.1//EN" "http://www.w3.org/Graphics/SVG/1.1/DTD/svg11.dtd"><svg t="1559191735637" class="icon" style="" viewBox="0 0 1287 1024" version="1.1" xmlns="http://www.w3.org/2000/svg" p-id="8055" xmlns:xlink="http://www.w3.org/1999/xlink" width="251.3671875" height="200"><defs><style type="text/css"></style></defs><path d="M809.047771 805.536914c0-23.698286-19.221943-42.890971-42.920228-42.890971H85.8112V290.6112H765.952a42.920229 42.920229 0 0 0 0-85.8112H42.920229C19.221943 204.8 0 224.021943 0 247.720229v557.816685C0 829.2352 19.221943 848.457143 42.920229 848.457143h723.207314c23.698286 0 42.920229-19.221943 42.920228-42.920229zM1244.394057 204.8h-124.606171a42.920229 42.920229 0 0 0 0 85.8112h81.7152v472.034743h-80.866743a42.920229 42.920229 0 1 0 0 85.8112h123.757714c23.698286 0 42.920229-19.221943 42.920229-42.920229V247.720229C1287.314286 224.021943 1268.092343 204.8 1244.394057 204.8z" p-id="8056"></path><path d="M1068.119771 938.656914h-88.239542V85.343086h87.712914c24.137143 0 43.680914-19.104914 43.680914-42.686172C1111.274057 19.104914 1091.730286 0 1067.593143 0h-263.255772C780.229486 0 760.685714 19.104914 760.685714 42.656914c0 23.581257 19.543771 42.686171 43.651657 42.686172h88.210286v853.313828h-88.210286c-24.107886 0-43.651657 19.104914-43.651657 42.686172 0 23.552 19.543771 42.656914 43.651657 42.656914h263.753143C1092.169143 1024 1111.771429 1004.924343 1111.771429 981.343086c0-23.552-19.514514-42.656914-43.651658-42.686172z" p-id="8057"></path></svg>