<?xml version="1.0" standalone="no"?><!DOCTYPE svg PUBLIC "-//W3C//DTD SVG 1.1//EN" "http://www.w3.org/Graphics/SVG/1.1/DTD/svg11.dtd"><svg t="1560737251998" class="icon" style="" viewBox="0 0 1024 1024" version="1.1" xmlns="http://www.w3.org/2000/svg" p-id="5394" xmlns:xlink="http://www.w3.org/1999/xlink" width="200" height="200"><defs><style type="text/css"></style></defs><path d="M257.137778 209.92l-91.022222-91.022222-47.217778 47.217778 91.022222 91.022222 47.217778-47.217778zM568.888889 236.088889a155.875556 155.875556 0 0 1 266.24 110.364444A154.168889 154.168889 0 0 1 787.911111 455.111111L682.666667 563.2l94.435555 94.435556 106.382222-106.382223A284.444444 284.444444 0 0 0 967.111111 347.591111 289.564444 289.564444 0 0 0 678.115556 56.888889a287.857778 287.857778 0 0 0-204.8 84.764444L366.364444 248.035556 460.8 341.333333zM69.404444 283.306667h128.568889v66.56H69.404444zM283.306667 69.404444h66.56v128.568889H283.306667zM766.293333 814.08l91.591111 91.022222 47.217778-47.217778-91.022222-91.022222-47.786667 47.217778zM825.457778 674.133333h128.568889v66.56h-128.568889zM674.133333 825.457778h66.56v128.568889h-66.56zM455.111111 787.911111a155.875556 155.875556 0 0 1-266.24-110.364444A154.168889 154.168889 0 0 1 236.088889 568.888889L341.333333 460.8 248.035556 366.364444 141.653333 472.746667A284.444444 284.444444 0 0 0 56.888889 676.408889 289.564444 289.564444 0 0 0 345.884444 967.111111a287.857778 287.857778 0 0 0 204.8-84.764444l106.382223-106.382223L563.2 682.666667z" p-id="5395"></path></svg>