<?xml version="1.0" encoding="utf-8"?>
<!-- Generator: Adobe Illustrator 15.0.2, SVG Export Plug-In . SVG Version: 6.00 Build 0)  -->
<!DOCTYPE svg PUBLIC "-//W3C//DTD SVG 1.1//EN" "http://www.w3.org/Graphics/SVG/1.1/DTD/svg11.dtd">
<svg version="1.1" id="Layer_1" xmlns="http://www.w3.org/2000/svg" xmlns:xlink="http://www.w3.org/1999/xlink" x="0px" y="0px"
	 width="100px" height="100px" viewBox="0 0 100 100" enable-background="new 0 0 100 100" xml:space="preserve">
<g transform="translate(0,-952.36218)">
	<path fill="#4D4D4D" d="M24.969,961.031c-0.586,0-1.137,0.26-1.458,0.564L4.411,979.632c-0.413,0.391-0.66,0.994-0.665,1.561
		c-0.006,0.581,0.241,1.124,0.665,1.525l19.101,18.037c0.807,0.766,2.22,0.741,2.983-0.064c0.765-0.809,0.741-2.255-0.065-3.018
		l-15.221-14.358h83.796c1.121,0,2.122-1.124,2.122-2.123c0-1.001-1.001-2.122-2.122-2.122H11.208l15.221-14.393
		c0.657-0.597,0.863-1.642,0.497-2.453C26.589,961.475,25.8,961.031,24.969,961.031z M75.836,1003.509
		c-0.553,0.015-1.109,0.227-1.489,0.63c-0.766,0.808-0.708,2.252,0.097,3.019l15.222,14.357H5.871c-1.124,0-2.125,1.12-2.125,2.122
		c0,1.001,1.001,2.121,2.125,2.121h83.794l-15.222,14.395c-0.656,0.597-0.862,1.641-0.496,2.452
		c0.337,0.749,1.127,1.194,1.956,1.194c0.587,0,1.138-0.261,1.46-0.564l19.099-18.04c0.412-0.389,0.66-0.991,0.665-1.558
		c0.005-0.581-0.241-1.124-0.665-1.525l-19.099-18.04C76.959,1003.691,76.393,1003.493,75.836,1003.509z"/>
</g>
</svg>
