<?xml version="1.0" encoding="utf-8"?>
<!-- Generator: Adobe Illustrator 15.0.2, SVG Export Plug-In . SVG Version: 6.00 Build 0)  -->
<!DOCTYPE svg PUBLIC "-//W3C//DTD SVG 1.1//EN" "http://www.w3.org/Graphics/SVG/1.1/DTD/svg11.dtd">
<svg version="1.1" id="Layer_1" xmlns="http://www.w3.org/2000/svg" xmlns:xlink="http://www.w3.org/1999/xlink" x="0px" y="0px"
	 width="100px" height="100px" viewBox="0 0 100 100" enable-background="new 0 0 100 100" xml:space="preserve">
<g>
	<defs>
		<rect id="SVGID_1_" width="100" height="100"/>
	</defs>
	<clipPath id="SVGID_2_">
		<use xlink:href="#SVGID_1_"  overflow="visible"/>
	</clipPath>
	<path clip-path="url(#SVGID_2_)" fill="#808285" d="M15.759,83.818c0-21.639,10.188-32.301,18.57-32.301
		c5.238,0,9.422,4.233,10.428,12.947"/>
	<path clip-path="url(#SVGID_2_)" fill="#808285" d="M35.982,39.361c-0.484,5.46-4.11,9.6-8.099,9.246
		c-3.99-0.353-6.831-5.066-6.347-10.526c0.484-5.461,4.11-9.6,8.099-9.247C33.624,29.188,36.466,33.901,35.982,39.361"/>
	
		<polygon clip-path="url(#SVGID_2_)" fill="none" stroke="#808285" stroke-linecap="round" stroke-linejoin="round" stroke-miterlimit="10" points="
		54.106,58.225 2.288,92.809 2.288,37.607 54.106,3.023 	"/>
	
		<polygon clip-path="url(#SVGID_2_)" fill="none" stroke="#808285" stroke-linecap="round" stroke-linejoin="round" stroke-miterlimit="10" points="
		51.515,25.584 37.999,34.605 37.999,20.207 51.515,11.187 	"/>
	
		<polygon clip-path="url(#SVGID_2_)" fill="none" stroke="#808285" stroke-linecap="round" stroke-linejoin="round" stroke-miterlimit="10" points="
		19.186,59.948 5.67,68.97 5.67,54.57 19.186,45.55 	"/>
	
		<polyline clip-path="url(#SVGID_2_)" fill="none" stroke="#808285" stroke-linecap="round" stroke-linejoin="round" stroke-miterlimit="10" stroke-dasharray="1.758,3.515" points="
		5.67,60.664 72.868,88.29 19.186,53.857 	"/>
	
		<polyline clip-path="url(#SVGID_2_)" fill="none" stroke="#808285" stroke-linecap="round" stroke-linejoin="round" stroke-miterlimit="10" stroke-dasharray="1.758,3.515" points="
		37.999,27.385 89.026,47.916 51.597,19.065 	"/>
	<path clip-path="url(#SVGID_2_)" fill="#FFFFFF" d="M97.713,47.916c0,4.797-3.89,8.688-8.688,8.688
		c-4.797,0-8.686-3.891-8.686-8.688s3.889-8.687,8.686-8.687C93.823,39.229,97.713,43.119,97.713,47.916"/>
	<circle clip-path="url(#SVGID_2_)" fill="none" stroke="#808285" stroke-miterlimit="10" cx="89.026" cy="47.916" r="8.687"/>
	<path clip-path="url(#SVGID_2_)" fill="#FFFFFF" d="M81.556,88.29c0,4.797-3.89,8.688-8.688,8.688
		c-4.797,0-8.686-3.891-8.686-8.688s3.889-8.687,8.686-8.687C77.666,79.604,81.556,83.493,81.556,88.29"/>
	<circle clip-path="url(#SVGID_2_)" fill="none" stroke="#808285" stroke-miterlimit="10" cx="72.869" cy="88.29" r="8.687"/>
	
		<line clip-path="url(#SVGID_2_)" fill="none" stroke="#FFFFFF" stroke-linecap="round" stroke-linejoin="round" stroke-miterlimit="10" stroke-dasharray="1.5,3.001" x1="41.167" y1="67.956" x2="24.491" y2="57.26"/>
	
		<line clip-path="url(#SVGID_2_)" fill="none" stroke="#FFFFFF" stroke-linecap="round" stroke-linejoin="round" stroke-miterlimit="10" stroke-dasharray="1.5,3.001" x1="19.559" y1="66.374" x2="32.829" y2="71.829"/>
</g>
</svg>
