<?xml version="1.0" encoding="utf-8"?>
<!-- Generator: Adobe Illustrator 15.0.2, SVG Export Plug-In . SVG Version: 6.00 Build 0)  -->
<!DOCTYPE svg PUBLIC "-//W3C//DTD SVG 1.1//EN" "http://www.w3.org/Graphics/SVG/1.1/DTD/svg11.dtd">
<svg version="1.1" id="Layer_1" xmlns="http://www.w3.org/2000/svg" xmlns:xlink="http://www.w3.org/1999/xlink" x="0px" y="0px"
	 width="100px" height="100px" viewBox="0 0 100 100" enable-background="new 0 0 100 100" xml:space="preserve">
<g>
	<defs>
		<rect id="SVGID_1_" width="100" height="100"/>
	</defs>
	<clipPath id="SVGID_2_">
		<use xlink:href="#SVGID_1_"  overflow="visible"/>
	</clipPath>
	
		<line clip-path="url(#SVGID_2_)" fill="none" stroke="#808285" stroke-width="4" stroke-linecap="round" stroke-linejoin="round" stroke-miterlimit="10" x1="4.416" y1="4.416" x2="4.416" y2="95.585"/>
</g>
<line fill="none" stroke="#000000" stroke-linecap="round" stroke-linejoin="round" stroke-miterlimit="10" x1="95.584" y1="95.584" x2="4.416" y2="95.584"/>
<g>
	<defs>
		<rect id="SVGID_3_" width="100" height="100"/>
	</defs>
	<clipPath id="SVGID_4_">
		<use xlink:href="#SVGID_3_"  overflow="visible"/>
	</clipPath>
	
		<line clip-path="url(#SVGID_4_)" fill="none" stroke="#808285" stroke-width="4" stroke-linecap="round" stroke-linejoin="round" stroke-miterlimit="10" x1="95.584" y1="95.584" x2="4.416" y2="95.584"/>
</g>
<polygon fill="#808285" points="4.416,56.561 13.733,54.228 17.644,40.228 20.977,58.228 27.977,28.561 31.867,47.894 
	34.977,36.894 38.739,53.561 43.31,33.228 48.334,55.228 52.31,40.228 54.977,50 58.977,22.561 64.31,51.563 68.134,40.394 
	71.977,51.563 75.644,37.228 80.31,51.563 82.644,44.228 84.977,51.563 95.585,53.228 85.894,55.394 84.727,60.394 82.644,55.561 
	80.31,73.815 75.977,51.563 72.644,61.561 68.134,51.563 64.31,67.228 58.977,44.561 55.644,62.561 52.644,54.228 48.334,71.228 
	42.977,51.563 38.739,73.815 34.31,53.894 31.867,63.228 27.977,48.188 20.977,67.561 16.644,55.894 15.227,63.311 13.644,56.644 
	"/>
<polygon fill="none" stroke="#808285" stroke-linecap="round" stroke-linejoin="round" stroke-miterlimit="10" points="
	4.416,56.561 13.733,54.228 17.644,40.228 20.977,58.228 27.977,28.561 31.867,47.894 34.977,36.894 38.739,53.561 43.31,33.228 
	48.334,55.228 52.31,40.228 54.977,50 58.977,22.561 64.31,51.563 68.134,40.394 71.977,51.563 75.644,37.228 80.31,51.563 
	82.644,44.228 84.977,51.563 95.585,53.228 85.894,55.394 84.727,60.394 82.644,55.561 80.31,73.815 75.977,51.563 72.644,61.561 
	68.134,51.563 64.31,67.228 58.977,44.561 55.644,62.561 52.644,54.228 48.334,71.228 42.977,51.563 38.739,73.815 34.31,53.894 
	31.867,63.228 27.977,48.188 20.977,67.561 16.644,55.894 15.227,63.311 13.644,56.644 "/>
</svg>
