<?xml version="1.0" encoding="utf-8"?>
<!-- Generator: Adobe Illustrator 15.0.2, SVG Export Plug-In . SVG Version: 6.00 Build 0)  -->
<!DOCTYPE svg PUBLIC "-//W3C//DTD SVG 1.1//EN" "http://www.w3.org/Graphics/SVG/1.1/DTD/svg11.dtd">
<svg version="1.1" id="Layer_1" xmlns="http://www.w3.org/2000/svg" xmlns:xlink="http://www.w3.org/1999/xlink" x="0px" y="0px"
	 width="100px" height="100px" viewBox="0 0 100 100" enable-background="new 0 0 100 100" xml:space="preserve">
<rect x="50" y="12.618" fill="#808285" width="18.133" height="82.937"/>
<rect x="50" y="12.618" fill="none" stroke="#FFFFFF" stroke-width="2" stroke-linecap="round" stroke-linejoin="round" stroke-miterlimit="10" width="18.133" height="82.937"/>
<rect x="31.867" y="27.178" fill="#808285" width="18.133" height="68.376"/>
<rect x="31.867" y="27.178" fill="none" stroke="#FFFFFF" stroke-width="2" stroke-linecap="round" stroke-linejoin="round" stroke-miterlimit="10" width="18.133" height="68.376"/>
<rect x="13.734" y="61.367" fill="#808285" width="18.133" height="34.188"/>
<rect x="13.734" y="61.367" fill="none" stroke="#FFFFFF" stroke-width="2" stroke-linecap="round" stroke-linejoin="round" stroke-miterlimit="10" width="18.133" height="34.188"/>
<rect x="68.133" y="44.176" fill="#808285" width="18.133" height="51.379"/>
<rect x="68.133" y="44.176" fill="none" stroke="#FFFFFF" stroke-width="2" stroke-linecap="round" stroke-linejoin="round" stroke-miterlimit="10" width="18.133" height="51.379"/>
<line fill="none" stroke="#000000" stroke-linecap="round" stroke-linejoin="round" stroke-miterlimit="10" x1="95.584" y1="95.584" x2="4.416" y2="95.584"/>
<line fill="none" stroke="#808285" stroke-width="4" stroke-linecap="round" stroke-linejoin="round" stroke-miterlimit="10" x1="4.416" y1="4.416" x2="4.416" y2="95.585"/>
<line fill="none" stroke="#808285" stroke-width="4" stroke-linecap="round" stroke-linejoin="round" stroke-miterlimit="10" x1="95.584" y1="95.584" x2="4.416" y2="95.584"/>
<path fill="none" stroke="#808285" stroke-width="1.298" stroke-linecap="round" stroke-linejoin="round" stroke-miterlimit="10" stroke-dasharray="1.948,3.896" d="
	M86.265,92.11c2.729,2.189,5.807,3.444,9.319,3.444"/>
<path fill="none" stroke="#808285" stroke-width="1.298" stroke-linecap="round" stroke-linejoin="round" stroke-miterlimit="10" stroke-dasharray="1.948,3.896" d="
	M41.47,27.454c2.693-5.227,5.476-8.524,8.53-8.524"/>
<path fill="none" stroke="#808285" stroke-width="1.298" stroke-linecap="round" stroke-linejoin="round" stroke-miterlimit="10" stroke-dasharray="1.948,3.896" d="
	M28.635,61.367c1.517-4.19,2.348-6.632,3.78-10.751"/>
<path fill="none" stroke="#808285" stroke-width="1.298" stroke-linecap="round" stroke-linejoin="round" stroke-miterlimit="10" stroke-dasharray="1.948,3.896" d="
	M4.416,95.584c3.718,0,7.05-2.104,10.09-5.613"/>
<path fill="none" stroke="#FFFFFF" stroke-linecap="round" stroke-linejoin="round" stroke-miterlimit="10" stroke-dasharray="1.5,3.001" d="
	M51.543,18.944c15.136,0,16.12,58.251,34.721,73.166"/>
<path fill="none" stroke="#FFFFFF" stroke-linecap="round" stroke-linejoin="round" stroke-miterlimit="10" stroke-dasharray="1.5,3.001" d="
	M32.007,51.792c3.046-8.778,5.938-17.166,8.926-23.27"/>
<path fill="none" stroke="#FFFFFF" stroke-linecap="round" stroke-linejoin="round" stroke-miterlimit="10" stroke-dasharray="1.5,3.001" d="
	M14.897,89.513c5.182-6.151,9.379-16.218,13.323-27.006"/>
<rect fill="none" width="100" height="100"/>
</svg>
