<?xml version="1.0" encoding="utf-8"?>
<!-- Generator: Adobe Illustrator 15.0.2, SVG Export Plug-In . SVG Version: 6.00 Build 0)  -->
<!DOCTYPE svg PUBLIC "-//W3C//DTD SVG 1.1//EN" "http://www.w3.org/Graphics/SVG/1.1/DTD/svg11.dtd">
<svg version="1.1" id="Layer_1" xmlns="http://www.w3.org/2000/svg" xmlns:xlink="http://www.w3.org/1999/xlink" x="0px" y="0px"
	 width="100px" height="100px" viewBox="0 0 100 100" enable-background="new 0 0 100 100" xml:space="preserve">
<polygon fill="none" stroke="#808285" stroke-width="1.298" stroke-linecap="round" stroke-linejoin="round" stroke-miterlimit="10" stroke-dasharray="1.948,3.896" points="
	24.786,15.505 50.687,2.697 68.617,19.49 42.717,32.44 "/>
<g>
	<defs>
		<rect id="SVGID_1_" width="100" height="100"/>
	</defs>
	<clipPath id="SVGID_2_">
		<use xlink:href="#SVGID_1_"  overflow="visible"/>
	</clipPath>
	
		<polyline clip-path="url(#SVGID_2_)" fill="none" stroke="#808285" stroke-width="1.298" stroke-linecap="round" stroke-linejoin="round" stroke-miterlimit="10" stroke-dasharray="1.948,3.896" points="
		46.244,98.303 10.555,64.73 61.972,39.507 	"/>
</g>
<line fill="none" stroke="#808285" stroke-width="1.298" stroke-linecap="round" stroke-linejoin="round" stroke-miterlimit="10" stroke-dasharray="1.948,3.896" x1="97.325" y1="72.762" x2="61.971" y2="39.506"/>
<g>
	<defs>
		<rect id="SVGID_3_" width="100" height="100"/>
	</defs>
	<clipPath id="SVGID_4_">
		<use xlink:href="#SVGID_3_"  overflow="visible"/>
	</clipPath>
	
		<line clip-path="url(#SVGID_4_)" fill="none" stroke="#808285" stroke-width="1.298" stroke-linecap="round" stroke-linejoin="round" stroke-miterlimit="10" stroke-dasharray="1.948,3.896" x1="97.325" y1="72.762" x2="46.725" y2="98.195"/>
</g>
<polyline fill="#FFFFFF" points="40.234,96.897 90.834,71.465 55.48,38.208 4.063,63.433 39.753,97.005 "/>
<polyline fill="none" stroke="#808285" stroke-width="1.298" stroke-linecap="round" stroke-linejoin="round" stroke-miterlimit="10" points="
	40.234,96.897 90.834,71.465 55.48,38.208 4.063,63.433 39.753,97.005 "/>
<polyline fill="#FFFFFF" points="56.608,88.301 44.806,77.288 21.368,55.152 "/>
<polyline fill="none" stroke="#808285" stroke-width="1.298" stroke-linecap="round" stroke-linejoin="round" stroke-miterlimit="10" points="
	56.608,88.301 44.806,77.288 21.368,55.152 "/>
<line fill="#FFFFFF" x1="73.602" y1="79.791" x2="38.623" y2="46.888"/>
<line fill="none" stroke="#808285" stroke-width="1.298" stroke-linecap="round" stroke-linejoin="round" stroke-miterlimit="10" x1="73.602" y1="79.791" x2="38.623" y2="46.888"/>
<line fill="#FFFFFF" x1="78.872" y1="60.262" x2="28.137" y2="85.763"/>
<line fill="none" stroke="#808285" stroke-width="1.298" stroke-linecap="round" stroke-linejoin="round" stroke-miterlimit="10" x1="78.872" y1="60.262" x2="28.137" y2="85.763"/>
<polyline fill="#FFFFFF" points="67.116,49.332 50.229,57.908 16.557,74.745 "/>
<polyline fill="none" stroke="#808285" stroke-width="1.298" stroke-linecap="round" stroke-linejoin="round" stroke-miterlimit="10" points="
	67.116,49.332 50.229,57.908 16.557,74.745 "/>
<polygon fill="#808285" points="4.169,63.774 38.243,46.53 61.676,68.905 28.242,86.105 "/>
<line fill="none" stroke="#FFFFFF" stroke-width="1.298" stroke-linecap="round" stroke-linejoin="round" stroke-miterlimit="10" x1="44.806" y1="77.288" x2="21.368" y2="55.152"/>
<line fill="none" stroke="#FFFFFF" stroke-width="1.298" stroke-linecap="round" stroke-linejoin="round" stroke-miterlimit="10" x1="50.23" y1="57.908" x2="16.558" y2="74.745"/>
<polygon fill="#FFFFFF" points="19.786,14.505 45.687,1.697 63.617,18.49 37.717,31.44 "/>
<g>
	<defs>
		<rect id="SVGID_5_" width="100" height="100"/>
	</defs>
	<clipPath id="SVGID_6_">
		<use xlink:href="#SVGID_5_"  overflow="visible"/>
	</clipPath>
	
		<polygon clip-path="url(#SVGID_6_)" fill="none" stroke="#808285" stroke-linecap="round" stroke-linejoin="round" stroke-miterlimit="10" points="
		19.786,14.505 45.687,1.697 63.617,18.49 37.717,31.44 	"/>
</g>
<line fill="none" stroke="#808285" stroke-linecap="round" stroke-linejoin="round" stroke-miterlimit="10" x1="28.751" y1="22.972" x2="54.651" y2="10.165"/>
<line fill="none" stroke="#808285" stroke-linecap="round" stroke-linejoin="round" stroke-miterlimit="10" x1="33.505" y1="7.926" x2="51.198" y2="24.497"/>
<polyline fill="none" stroke="#808285" stroke-linecap="round" stroke-linejoin="round" stroke-miterlimit="10" stroke-dasharray="1.5,3.001" points="
	4.064,62.442 10.331,34.261 18.217,57.088 "/>
<polyline fill="none" stroke="#808285" stroke-linecap="round" stroke-linejoin="round" stroke-miterlimit="10" stroke-dasharray="1.5,3.001" points="
	32.214,49.026 10.332,34.262 38.243,46.53 "/>
<polygon fill="#808285" points="19.786,14.505 33.267,7.704 42.232,16.1 28.751,22.972 "/>
<line fill="none" stroke="#808285" stroke-linecap="round" stroke-linejoin="round" stroke-miterlimit="10" stroke-dasharray="1.5,3.001" x1="10.332" y1="34.262" x2="30.392" y2="15.679"/>
<g>
	<defs>
		<rect id="SVGID_7_" width="100" height="100"/>
	</defs>
	<clipPath id="SVGID_8_">
		<use xlink:href="#SVGID_7_"  overflow="visible"/>
	</clipPath>
	<path clip-path="url(#SVGID_8_)" fill="#FFFFFF" d="M17.988,34.262c0,4.229-3.428,7.657-7.657,7.657
		c-4.228,0-7.656-3.428-7.656-7.657s3.428-7.657,7.656-7.657C14.56,26.605,17.988,30.033,17.988,34.262"/>
	<circle clip-path="url(#SVGID_8_)" fill="none" stroke="#808285" stroke-miterlimit="10" cx="10.332" cy="34.262" r="7.656"/>
	
		<line clip-path="url(#SVGID_8_)" fill="none" stroke="#FFFFFF" stroke-linecap="round" stroke-linejoin="round" stroke-miterlimit="10" stroke-dasharray="1.5,3.001" x1="18.217" y1="57.088" x2="28.241" y2="86.104"/>
	
		<line clip-path="url(#SVGID_8_)" fill="none" stroke="#FFFFFF" stroke-linecap="round" stroke-linejoin="round" stroke-miterlimit="10" stroke-dasharray="1.5,3.001" x1="61.676" y1="68.904" x2="32.214" y2="49.026"/>
</g>
</svg>
